<svg width="24" height="18" viewBox="0 0 24 18" fill="none" xmlns="http://www.w3.org/2000/svg">
<path d="M15.2188 0.148212C15.326 0.195805 15.4227 0.264045 15.5035 0.349035C15.5843 0.434025 15.6476 0.5341 15.6897 0.643544C15.7318 0.752988 15.752 0.869658 15.749 0.986889C15.746 1.10412 15.72 1.21962 15.6724 1.32678L8.52951 17.3982C8.43337 17.6146 8.25518 17.784 8.03416 17.8691C7.81313 17.9541 7.56737 17.9479 7.35094 17.8518C7.1345 17.7556 6.96512 17.5775 6.88006 17.3564C6.795 17.1354 6.80122 16.8896 6.89736 16.6732L14.0402 0.601783C14.0878 0.494606 14.1561 0.397854 14.241 0.317054C14.326 0.236253 14.4261 0.172986 14.5356 0.130867C14.645 0.0887477 14.7617 0.0686006 14.8789 0.0715766C14.9961 0.0745526 15.1116 0.100593 15.2188 0.148212ZM5.45094 4.31428C5.53841 4.39237 5.60964 4.48692 5.66058 4.59254C5.71151 4.69816 5.74113 4.81278 5.74777 4.92985C5.7544 5.04692 5.73791 5.16414 5.69923 5.27484C5.66056 5.38554 5.60046 5.48753 5.52237 5.575L2.48129 9L5.52594 12.425C5.60379 12.5127 5.66361 12.6149 5.70197 12.7257C5.74034 12.8365 5.7565 12.9538 5.74954 13.0709C5.74257 13.188 5.71262 13.3025 5.66139 13.408C5.61015 13.5135 5.53864 13.6079 5.45094 13.6857C5.36323 13.7636 5.26105 13.8234 5.15023 13.8617C5.03941 13.9001 4.92211 13.9163 4.80505 13.9093C4.68798 13.9023 4.57343 13.8724 4.46794 13.8212C4.36244 13.7699 4.26808 13.6984 4.19022 13.6107L0.618793 9.59285C0.473694 9.42946 0.393555 9.21852 0.393555 9C0.393555 8.78147 0.473694 8.57054 0.618793 8.40714L4.19022 4.38928C4.26806 4.30156 4.36243 4.23003 4.46792 4.17878C4.57341 4.12753 4.68797 4.09757 4.80504 4.09061C4.92212 4.08364 5.03942 4.09981 5.15024 4.13819C5.26106 4.17657 5.36324 4.23641 5.45094 4.31428ZM18.5492 4.31428C18.6368 4.23641 18.739 4.17657 18.8498 4.13819C18.9607 4.09981 19.078 4.08364 19.195 4.09061C19.3121 4.09757 19.4267 4.12753 19.5322 4.17878C19.6377 4.23003 19.732 4.30156 19.8099 4.38928L23.3813 8.40714C23.5264 8.57054 23.6065 8.78147 23.6065 9C23.6065 9.21852 23.5264 9.42946 23.3813 9.59285L19.8099 13.6107C19.732 13.6984 19.6376 13.7699 19.5322 13.8212C19.4267 13.8724 19.3121 13.9023 19.195 13.9093C19.078 13.9163 18.9607 13.9001 18.8499 13.8617C18.739 13.8234 18.6369 13.7636 18.5492 13.6857C18.4614 13.6079 18.3899 13.5135 18.3387 13.408C18.2875 13.3025 18.2575 13.188 18.2505 13.0709C18.2436 12.9538 18.2597 12.8365 18.2981 12.7257C18.3365 12.6149 18.3963 12.5127 18.4742 12.425L21.5188 9L18.4742 5.575C18.3963 5.4873 18.3364 5.38513 18.2981 5.2743C18.2597 5.16348 18.2435 5.04618 18.2505 4.9291C18.2574 4.81203 18.2874 4.69747 18.3386 4.59198C18.3899 4.48649 18.4614 4.39212 18.5492 4.31428Z" fill="#FF7E35"/>
</svg>
