<svg width="22" height="22" viewBox="0 0 22 22" fill="none" xmlns="http://www.w3.org/2000/svg">
<path d="M11.8923 10.1071C11.8923 9.39674 12.1745 8.71544 12.6768 8.21311C13.1792 7.71078 13.8605 7.42857 14.5709 7.42857H17.2494C17.4862 7.42857 17.7133 7.52264 17.8808 7.69009C18.0482 7.85753 18.1423 8.08463 18.1423 8.32143C18.1423 8.55823 18.0482 8.78533 17.8808 8.95278C17.7133 9.12022 17.4862 9.21429 17.2494 9.21429H14.5709C14.3341 9.21429 14.107 9.30836 13.9395 9.4758C13.7721 9.64324 13.678 9.87035 13.678 10.1071V11C13.678 11.2368 13.7721 11.4639 13.9395 11.6313C14.107 11.7988 14.3341 11.8929 14.5709 11.8929H15.4637C16.1741 11.8929 16.8554 12.1751 17.3578 12.6774C17.8601 13.1797 18.1423 13.861 18.1423 14.5714V15.4643C18.1423 16.1747 17.8601 16.856 17.3578 17.3583C16.8554 17.8607 16.1741 18.1429 15.4637 18.1429H12.7852C12.5484 18.1429 12.3213 18.0488 12.1538 17.8813C11.9864 17.7139 11.8923 17.4868 11.8923 17.25C11.8923 17.0132 11.9864 16.7861 12.1538 16.6187C12.3213 16.4512 12.5484 16.3571 12.7852 16.3571H15.4637C15.7005 16.3571 15.9276 16.2631 16.0951 16.0956C16.2625 15.9282 16.3566 15.7011 16.3566 15.4643V14.5714C16.3566 14.3346 16.2625 14.1075 16.0951 13.9401C15.9276 13.7726 15.7005 13.6786 15.4637 13.6786H14.5709C13.8605 13.6786 13.1792 13.3964 12.6768 12.894C12.1745 12.3917 11.8923 11.7104 11.8923 11V10.1071ZM10.9994 8.32143C10.9994 8.08463 10.9054 7.85753 10.7379 7.69009C10.5705 7.52264 10.3434 7.42857 10.1066 7.42857C9.86978 7.42857 9.64268 7.52264 9.47524 7.69009C9.3078 7.85753 9.21373 8.08463 9.21373 8.32143V15.4643C9.21373 15.7011 9.11966 15.9282 8.95222 16.0956C8.78477 16.2631 8.55767 16.3571 8.32087 16.3571H6.53516C6.29836 16.3571 6.07125 16.4512 5.90381 16.6187C5.73637 16.7861 5.6423 17.0132 5.6423 17.25C5.6423 17.4868 5.73637 17.7139 5.90381 17.8813C6.07125 18.0488 6.29836 18.1429 6.53516 18.1429H8.32087C9.03127 18.1429 9.71258 17.8607 10.2149 17.3583C10.7172 16.856 10.9994 16.1747 10.9994 15.4643V8.32143ZM0.285156 4.75C0.285156 3.566 0.755499 2.43049 1.59272 1.59328C2.42993 0.75606 3.56544 0.285717 4.74944 0.285717H17.2494C18.4334 0.285717 19.569 0.75606 20.4062 1.59328C21.2434 2.43049 21.7137 3.566 21.7137 4.75V17.25C21.7137 18.434 21.2434 19.5695 20.4062 20.4067C19.569 21.2439 18.4334 21.7143 17.2494 21.7143H4.74944C3.56544 21.7143 2.42993 21.2439 1.59272 20.4067C0.755499 19.5695 0.285156 18.434 0.285156 17.25V4.75ZM4.74944 2.07143C4.03904 2.07143 3.35774 2.35364 2.85541 2.85597C2.35308 3.3583 2.07087 4.0396 2.07087 4.75V17.25C2.07087 17.9604 2.35308 18.6417 2.85541 19.144C3.35774 19.6464 4.03904 19.9286 4.74944 19.9286H17.2494C17.9598 19.9286 18.6411 19.6464 19.1435 19.144C19.6458 18.6417 19.928 17.9604 19.928 17.25V4.75C19.928 4.0396 19.6458 3.3583 19.1435 2.85597C18.6411 2.35364 17.9598 2.07143 17.2494 2.07143H4.74944Z" fill="#306AFF"/>
</svg>
