<svg width="18" height="26" viewBox="0 0 18 26" fill="none" xmlns="http://www.w3.org/2000/svg">
<path d="M1.85672 0.503571C1.61992 0.503571 1.39282 0.597639 1.22538 0.765082C1.05794 0.932526 0.963867 1.15963 0.963867 1.39643V13.8929C0.963867 14.8401 1.34014 15.7485 2.00991 16.4182C2.67969 17.088 3.58809 17.4643 4.5353 17.4643H5.42815V21.9286C5.42815 22.3973 5.52048 22.8615 5.69988 23.2946C5.87927 23.7277 6.14221 24.1212 6.47368 24.4527C6.80515 24.7842 7.19866 25.0471 7.63175 25.2265C8.06484 25.4059 8.52902 25.4982 8.9978 25.4982C9.46657 25.4982 9.93075 25.4059 10.3638 25.2265C10.7969 25.0471 11.1904 24.7842 11.5219 24.4527C11.8534 24.1212 12.1163 23.7277 12.2957 23.2946C12.4751 22.8615 12.5674 22.3973 12.5674 21.9286V17.4643H13.4639C14.4111 17.4643 15.3195 17.088 15.9892 16.4182C16.659 15.7485 17.0353 14.8401 17.0353 13.8929V1.39643C17.0353 1.15963 16.9412 0.932526 16.7738 0.765082C16.6063 0.597639 16.3792 0.503571 16.1424 0.503571H1.85672ZM15.2496 11.2143H2.74958V2.28929H8.10672V4.97143C8.10672 5.20823 8.20079 5.43533 8.36824 5.60277C8.53568 5.77022 8.76278 5.86429 8.99958 5.86429C9.23638 5.86429 9.46348 5.77022 9.63093 5.60277C9.79837 5.43533 9.89244 5.20823 9.89244 4.97143V2.28929H11.6782V6.74643C11.6782 6.98323 11.7722 7.21033 11.9397 7.37777C12.1071 7.54522 12.3342 7.63929 12.571 7.63929C12.8078 7.63929 13.0349 7.54522 13.2024 7.37777C13.3698 7.21033 13.4639 6.98323 13.4639 6.74643V2.28929H15.2496V11.2143ZM2.74958 13.8929V13H15.2496V13.8929C15.2496 14.3665 15.0614 14.8207 14.7266 15.1555C14.3917 15.4904 13.9375 15.6786 13.4639 15.6786H11.6746C11.4378 15.6786 11.2107 15.7726 11.0432 15.9401C10.8758 16.1075 10.7817 16.3346 10.7817 16.5714V21.9286C10.7817 22.4017 10.5938 22.8554 10.2592 23.19C9.92467 23.5246 9.47092 23.7125 8.9978 23.7125C8.52467 23.7125 8.07092 23.5246 7.73637 23.19C7.40182 22.8554 7.21387 22.4017 7.21387 21.9286V16.5714C7.21387 16.3346 7.1198 16.1075 6.95236 15.9401C6.78491 15.7726 6.55781 15.6786 6.32101 15.6786H4.5353C4.06169 15.6786 3.60749 15.4904 3.27261 15.1555C2.93772 14.8207 2.74958 14.3665 2.74958 13.8929Z" fill="#2FD887"/>
</svg>
